<?xml version="1.0" encoding="iso-8859-1"?>
<!-- Generator: Adobe Illustrator 19.0.0, SVG Export Plug-In . SVG Version: 6.00 Build 0)  -->
<svg version="1.1" id="Capa_1" xmlns="http://www.w3.org/2000/svg" xmlns:xlink="http://www.w3.org/1999/xlink" x="0px" y="0px"
	 viewBox="0 0 512 512" style="enable-background:new 0 0 512 512;" xml:space="preserve">
<path style="fill:#1081E0;" d="M294.582,38.665C238.234,6.126,166.17,25.435,133.631,81.792L15.807,285.87
	c-32.539,56.357-13.23,128.421,43.127,160.951c51.739,29.87,116.635,15.945,152.11-30.135l140.718-256.475
	C359.67,113.106,338.385,63.954,294.582,38.665z"/>
<circle style="fill:#FC3952;" cx="347.43" cy="324.571" r="164.57"/>
<path style="fill:#FFFFFF;" d="M137.133,187.429c-1.463,0-2.953-0.357-4.334-1.097c-4.443-2.405-6.098-7.945-3.703-12.389
	l37.303-69.065c15.991-27.703,47.515-45.449,80.457-45.449c5.047,0,9.143,4.096,9.143,9.143s-4.096,9.143-9.143,9.143
	c-26.523,0-51.84,14.162-64.494,36.078l-37.175,68.837C143.533,185.691,140.378,187.429,137.133,187.429z"/>
<ellipse style="fill:#F76363;" cx="347.43" cy="324.571" rx="36.571" ry="164.57"/>
<g>
</g>
<g>
</g>
<g>
</g>
<g>
</g>
<g>
</g>
<g>
</g>
<g>
</g>
<g>
</g>
<g>
</g>
<g>
</g>
<g>
</g>
<g>
</g>
<g>
</g>
<g>
</g>
<g>
</g>
</svg>
