<?xml version="1.0" encoding="iso-8859-1"?>
<!-- Generator: Adobe Illustrator 19.0.0, SVG Export Plug-In . SVG Version: 6.00 Build 0)  -->
<svg version="1.1" id="Capa_1" xmlns="http://www.w3.org/2000/svg" xmlns:xlink="http://www.w3.org/1999/xlink" x="0px" y="0px"
	 viewBox="0 0 512 512" style="enable-background:new 0 0 512 512;" xml:space="preserve">
<path style="fill:#DD352E;" d="M475.613,475.613L475.613,475.613c-48.516,48.516-127.179,48.516-175.687,0L36.387,212.074
	c-48.516-48.516-48.516-127.179,0-175.687l0,0c48.516-48.516,127.179-48.516,175.687,0l263.539,263.539
	C524.129,348.443,524.129,427.096,475.613,475.613z" class="svg-pill"/>
<g>
	<path style="fill:#F27C7C;" d="M387.769,467.862c-21.389,0-41.507-8.333-56.638-23.464c-3.452-3.452-3.452-9.031,0-12.482
		c3.443-3.452,9.039-3.452,12.482,0c11.794,11.794,27.48,18.291,44.156,18.291c16.675,0,32.362-6.497,44.156-18.291
		c3.452-3.452,9.039-3.452,12.482,0s3.443,9.039,0,12.482C429.277,459.529,409.159,467.862,387.769,467.862z"/>
	<path style="fill:#F27C7C;" d="M173.524,82.476c-2.26,0-4.52-0.865-6.241-2.586c-24.09-24.09-63.294-24.09-87.384,0
		c-3.443,3.452-9.039,3.452-12.482,0c-3.452-3.452-3.452-9.031,0-12.482c30.976-30.976,81.382-30.976,112.358,0
		c3.452,3.452,3.452,9.031,0,12.482C178.044,81.62,175.784,82.476,173.524,82.476z"/>
</g>
<!-- <rect x="130.427" y="245.825" transform="matrix(0.7071 -0.7071 0.7071 0.7071 -105.475 254.6655)" style="fill:#EBBA16;" width="248.488" height="17.655"/> -->
<g>
</g>
<g>
</g>
<g>
</g>
<g>
</g>
<g>
</g>
<g>
</g>
<g>
</g>
<g>
</g>
<g>
</g>
<g>
</g>
<g>
</g>
<g>
</g>
<g>
</g>
<g>
</g>
<g>
</g>
</svg>
